<svg width="24" height="24" viewBox="0 0 24 24" fill="none" xmlns="http://www.w3.org/2000/svg">
<path fill-rule="evenodd" clip-rule="evenodd" d="M11.4647 4H12.5353C13.2123 3.99998 13.7707 3.99997 14.2125 4.05938C14.6764 4.12175 15.0862 4.25773 15.4142 4.58579C15.7423 4.91384 15.8783 5.32356 15.9406 5.78747C16 6.22935 16 6.78766 16 7.46472V7.5L16.0366 7.5C16.9483 7.49999 17.6832 7.49998 18.2612 7.57768C18.8612 7.65836 19.3665 7.83096 19.7678 8.23224C20.169 8.63351 20.3416 9.13876 20.4223 9.73883C20.5 10.3168 20.5 11.0517 20.5 11.9634V15.5366C20.5 16.4483 20.5 17.1832 20.4223 17.7612C20.3416 18.3612 20.169 18.8665 19.7678 19.2678C19.3665 19.669 18.8612 19.8416 18.2612 19.9223C17.6832 20 16.9483 20 16.0366 20H7.96343C7.0517 20 6.31681 20 5.73883 19.9223C5.13876 19.8416 4.63351 19.669 4.23223 19.2678C3.83096 18.8665 3.65836 18.3612 3.57768 17.7612C3.49998 17.1832 3.49999 16.4483 3.5 15.5366V11.9634C3.49999 11.0517 3.49998 10.3168 3.57768 9.73883C3.65836 9.13876 3.83096 8.63351 4.23223 8.23224C4.63351 7.83096 5.13876 7.65836 5.73883 7.57768C6.31681 7.49998 7.05169 7.49999 7.96342 7.5L8 7.5L8 7.46472C7.99998 6.78766 7.99997 6.22935 8.05938 5.78747C8.12175 5.32356 8.25773 4.91384 8.58579 4.58579C8.91384 4.25773 9.32356 4.12175 9.78747 4.05938C10.2293 3.99997 10.7877 3.99998 11.4647 4ZM9 7.5H15C15 6.77876 14.9989 6.28813 14.9495 5.92072C14.9021 5.56769 14.8184 5.40418 14.7071 5.2929C14.5958 5.18161 14.4323 5.09792 14.0793 5.05046C13.7119 5.00106 13.2212 5 12.5 5H11.5C10.7788 5 10.2881 5.00106 9.92072 5.05046C9.56769 5.09792 9.40418 5.18161 9.2929 5.2929C9.18161 5.40418 9.09792 5.56769 9.05046 5.92072C9.00106 6.28813 9 6.77876 9 7.5ZM10.875 11.625C10.875 11.2755 10.875 11.1008 10.9321 10.963C11.0082 10.7792 11.1542 10.6332 11.338 10.5571C11.4758 10.5 11.6505 10.5 12 10.5C12.3495 10.5 12.5242 10.5 12.662 10.5571C12.8458 10.6332 12.9918 10.7792 13.0679 10.963C13.125 11.1008 13.125 11.2755 13.125 11.625V12.339C13.125 12.356 13.125 12.3645 13.1303 12.3697C13.1355 12.375 13.144 12.375 13.161 12.375H13.875C14.2245 12.375 14.3992 12.375 14.537 12.4321C14.7208 12.5082 14.8668 12.6542 14.9429 12.838C15 12.9758 15 13.1505 15 13.5C15 13.8495 15 14.0242 14.9429 14.162C14.8668 14.3458 14.7208 14.4918 14.537 14.5679C14.3992 14.625 14.2245 14.625 13.875 14.625H13.161C13.144 14.625 13.1355 14.625 13.1303 14.6303C13.125 14.6355 13.125 14.644 13.125 14.661V15.375C13.125 15.7245 13.125 15.8992 13.0679 16.037C12.9918 16.2208 12.8458 16.3668 12.662 16.4429C12.5242 16.5 12.3495 16.5 12 16.5C11.6505 16.5 11.4758 16.5 11.338 16.4429C11.1542 16.3668 11.0082 16.2208 10.9321 16.037C10.875 15.8992 10.875 15.7245 10.875 15.375V14.661C10.875 14.644 10.875 14.6355 10.8697 14.6303C10.8645 14.625 10.856 14.625 10.839 14.625H10.125C9.77554 14.625 9.60082 14.625 9.46299 14.5679C9.27922 14.4918 9.13321 14.3458 9.05709 14.162C9 14.0242 9 13.8495 9 13.5C9 13.1505 9 12.9758 9.05709 12.838C9.13321 12.6542 9.27922 12.5082 9.46299 12.4321C9.60082 12.375 9.77554 12.375 10.125 12.375H10.839C10.856 12.375 10.8645 12.375 10.8697 12.3697C10.875 12.3645 10.875 12.356 10.875 12.339V11.625Z" fill="#767676"/>
</svg>
