<svg width="24" height="24" viewBox="0 0 24 24" fill="none" xmlns="http://www.w3.org/2000/svg">
<path fill-rule="evenodd" clip-rule="evenodd" d="M7.99881 3.35099C8.46619 3.08335 9.01924 3.09903 9.47032 3.31907C11.6791 4.39658 14.3241 4.3977 16.5338 3.32209C16.99 3.10005 17.5499 3.08712 18.0194 3.3629L21.4858 5.39871C21.8005 5.58869 21.9987 5.93678 21.9999 6.30514L21.9999 6.30662C22.0015 12.2607 18.7298 17.8809 13.5741 20.8468C13.2223 21.049 12.7777 21.0491 12.4259 20.8469C7.25378 17.8716 3.97915 12.2259 3.99998 6.25297C4.00117 5.88461 4.19938 5.53655 4.51407 5.34658L4.52395 5.34061L7.99881 3.35099ZM11.6875 8.81256C11.6875 8.40486 11.6875 8.20101 11.7541 8.04021C11.8429 7.82581 12.0133 7.65547 12.2277 7.56667C12.3885 7.50006 12.5923 7.50006 13 7.50006C13.4077 7.50006 13.6115 7.50006 13.7723 7.56667C13.9867 7.65547 14.1571 7.82581 14.2459 8.04021C14.3125 8.20101 14.3125 8.40486 14.3125 8.81256V9.64556C14.3125 9.66536 14.3125 9.67526 14.3187 9.68141C14.3248 9.68756 14.3347 9.68756 14.3545 9.68756H15.1875C15.5952 9.68756 15.799 9.68756 15.9598 9.75417C16.1742 9.84297 16.3446 10.0133 16.4334 10.2277C16.5 10.3885 16.5 10.5924 16.5 11.0001C16.5 11.4078 16.5 11.6116 16.4334 11.7724C16.3446 11.9868 16.1742 12.1571 15.9598 12.246C15.799 12.3126 15.5952 12.3126 15.1875 12.3126H14.3545C14.3347 12.3126 14.3248 12.3126 14.3187 12.3187C14.3125 12.3249 14.3125 12.3348 14.3125 12.3546V13.1876C14.3125 13.5953 14.3125 13.7991 14.2459 13.9599C14.1571 14.1743 13.9867 14.3446 13.7723 14.4335C13.6115 14.5001 13.4077 14.5001 13 14.5001C12.5923 14.5001 12.3885 14.5001 12.2277 14.4335C12.0133 14.3446 11.8429 14.1743 11.7541 13.9599C11.6875 13.7991 11.6875 13.5953 11.6875 13.1876V12.3546C11.6875 12.3348 11.6875 12.3249 11.6813 12.3187C11.6752 12.3126 11.6653 12.3126 11.6455 12.3126H10.8125C10.4048 12.3126 10.201 12.3126 10.0402 12.246C9.82575 12.1571 9.65541 11.9868 9.56661 11.7724C9.5 11.6116 9.5 11.4078 9.5 11.0001C9.5 10.5924 9.5 10.3885 9.56661 10.2277C9.65541 10.0133 9.82575 9.84297 10.0402 9.75417C10.201 9.68756 10.4048 9.68756 10.8125 9.68756H11.6455C11.6653 9.68756 11.6752 9.68756 11.6813 9.68141C11.6875 9.67526 11.6875 9.66536 11.6875 9.64556V8.81256Z" fill="#767676"/>
</svg>
