<svg width="26" height="20" viewBox="0 0 26 20" fill="none" xmlns="http://www.w3.org/2000/svg">
<path fill-rule="evenodd" clip-rule="evenodd" d="M1.53001 10.625C1.70134 10.7036 1.93268 10.7873 2.22722 10.8721C2.89001 11.063 3.80067 11.2399 4.90149 11.3902C7.09858 11.6902 9.98213 11.875 13 11.875C16.0179 11.875 18.9014 11.6902 21.0985 11.3902C22.1993 11.2399 23.11 11.063 23.7728 10.8721C24.0673 10.7873 24.2987 10.7036 24.47 10.625C24.3745 10.5812 24.2556 10.5336 24.1103 10.4837C23.5144 10.279 22.6233 10.0842 21.4987 9.91682C19.2594 9.58353 16.2062 9.375 13 9.375C9.79382 9.375 6.74063 9.58353 4.50128 9.91682C3.37671 10.0842 2.48565 10.279 1.8897 10.4837C1.74441 10.5336 1.62549 10.5812 1.53001 10.625ZM0.113645 11.0614C0.0458173 10.9364 0 10.7893 0 10.625C0 10.1914 0.304511 9.90251 0.532006 9.74258C0.77893 9.569 1.1013 9.42718 1.45232 9.3066C2.16235 9.06268 3.14721 8.85346 4.30242 8.68153C6.62263 8.3362 9.74445 8.125 13 8.125C16.2556 8.125 19.3774 8.3362 21.6976 8.68153C22.8528 8.85346 23.8377 9.06268 24.5477 9.3066C24.8987 9.42718 25.2211 9.569 25.468 9.74258C25.6955 9.90251 26 10.1914 26 10.625C26 10.7893 25.9542 10.9364 25.8863 11.0614C25.3726 12.498 22.2511 20 13 20C3.74893 20 0.627407 12.498 0.113645 11.0614Z" fill="#767676"/>
<path fill-rule="evenodd" clip-rule="evenodd" d="M6.65985 0.214521C6.89562 -0.0457712 7.3062 -0.0729981 7.57691 0.153708C7.8362 0.370856 8.04984 0.609427 8.20135 0.900801C8.35287 1.19218 8.42317 1.49966 8.44827 1.8294C8.50792 2.61335 7.91132 3.05517 7.613 3.2761C7.59928 3.28625 7.5862 3.29594 7.57384 3.30517C7.18037 3.59912 7.15 3.66623 7.15 3.75001C7.15 4.08393 7.23517 4.34364 7.37402 4.54391C7.51287 4.74417 7.72944 4.91966 8.05 5.04809C8.38137 5.18085 8.53807 5.54677 8.4 5.86539C8.26193 6.18402 7.88137 6.33469 7.55 6.20193C7.02573 5.99189 6.59229 5.66989 6.29236 5.23728C5.99242 4.80468 5.85 4.29612 5.85 3.75001C5.85 2.99998 6.4294 2.57354 6.72503 2.35596C6.74325 2.34255 6.76039 2.32994 6.77625 2.31809C7.16017 2.03127 7.15616 1.97874 7.15179 1.92131L7.15173 1.92062C7.1354 1.70604 7.09472 1.56775 7.0386 1.45982C6.98247 1.35189 6.89182 1.23762 6.72309 1.09631C6.45239 0.869604 6.42407 0.474814 6.65985 0.214521Z" fill="#767676"/>
<path fill-rule="evenodd" clip-rule="evenodd" d="M12.5098 0.214521C12.7456 -0.0457712 13.1562 -0.0729981 13.4269 0.153708C13.6862 0.370856 13.8998 0.609427 14.0514 0.900801C14.2029 1.19218 14.2732 1.49966 14.2983 1.8294C14.3579 2.61335 13.7613 3.05517 13.463 3.2761C13.4493 3.28625 13.4362 3.29594 13.4238 3.30517C13.0304 3.59912 13 3.66623 13 3.75001C13 4.08393 13.0852 4.34364 13.224 4.54391C13.3629 4.74417 13.5794 4.91966 13.9 5.04809C14.2314 5.18085 14.3881 5.54677 14.25 5.86539C14.1119 6.18402 13.7314 6.33469 13.4 6.20193C12.8757 5.99189 12.4423 5.66989 12.1424 5.23728C11.8424 4.80468 11.7 4.29612 11.7 3.75001C11.7 2.99998 12.2794 2.57354 12.575 2.35596C12.5932 2.34255 12.6104 2.32994 12.6262 2.31809C13.0102 2.03127 13.0062 1.97874 13.0018 1.92131L13.0017 1.92062C12.9854 1.70604 12.9447 1.56775 12.8886 1.45982C12.8325 1.35189 12.7418 1.23762 12.5731 1.09631C12.3024 0.869604 12.2741 0.474814 12.5098 0.214521Z" fill="#767676"/>
<path fill-rule="evenodd" clip-rule="evenodd" d="M18.3598 0.214521C18.5956 -0.0457712 19.0062 -0.0729981 19.2769 0.153708C19.5362 0.370856 19.7498 0.609427 19.9014 0.900801C20.0529 1.19218 20.1232 1.49966 20.1483 1.8294C20.2079 2.61335 19.6113 3.05517 19.313 3.2761C19.2993 3.28625 19.2862 3.29594 19.2738 3.30517C18.8804 3.59912 18.85 3.66623 18.85 3.75001C18.85 4.08393 18.9352 4.34364 19.074 4.54391C19.2129 4.74417 19.4294 4.91966 19.75 5.04809C20.0814 5.18085 20.2381 5.54677 20.1 5.86539C19.9619 6.18402 19.5814 6.33469 19.25 6.20193C18.7257 5.99189 18.2923 5.66989 17.9924 5.23728C17.6924 4.80468 17.55 4.29612 17.55 3.75001C17.55 2.99998 18.1294 2.57354 18.425 2.35596C18.4432 2.34255 18.4604 2.32994 18.4762 2.31809C18.8602 2.03127 18.8562 1.97874 18.8518 1.92131L18.8517 1.92062C18.8354 1.70604 18.7947 1.56775 18.7386 1.45982C18.6825 1.35189 18.5918 1.23762 18.4231 1.09631C18.1524 0.869604 18.1241 0.474814 18.3598 0.214521Z" fill="#767676"/>
</svg>
