<svg width="28" height="24" viewBox="0 0 28 24" fill="none" xmlns="http://www.w3.org/2000/svg">
<path d="M16 3C15.3358 3 14.7724 3.43171 14.5752 4.02985C13.1195 4.2362 12 5.48736 12 7V11.5C12 14.3771 14.2091 16.7382 17.0237 16.9797C17.28 19.5311 19.5746 20.8737 21.7353 20.9373C22.8942 20.9714 24.0807 20.6491 24.9875 19.9113C25.9072 19.1628 26.5 18.0172 26.5 16.5V12.5H25.5V16.5C25.5 17.7328 25.0303 18.5872 24.3563 19.1356C23.6693 19.6946 22.7308 19.9661 21.7647 19.9377C19.9568 19.8845 18.2774 18.8204 18.031 16.9747C20.8194 16.7076 23 14.3584 23 11.5V7C23 5.67911 22.1463 4.55761 20.9606 4.1571C20.8055 3.49391 20.2105 3 19.5 3C18.6716 3 18 3.67157 18 4.5C18 5.32843 18.6716 6 19.5 6C20.0826 6 20.5876 5.66785 20.836 5.18259C21.5231 5.49918 22 6.1939 22 7V11.5C22 13.9853 19.9853 16 17.5 16C15.0147 16 13 13.9853 13 11.5V7C13 6.03237 13.6872 5.22524 14.6001 5.03998C14.8169 5.6016 15.3619 6 16 6C16.8284 6 17.5 5.32843 17.5 4.5C17.5 3.67157 16.8284 3 16 3Z" fill="#767676"/>
<path fill-rule="evenodd" clip-rule="evenodd" d="M24 11C24 9.89543 24.8954 9 26 9C27.1046 9 28 9.89543 28 11C28 12.1046 27.1046 13 26 13C24.8954 13 24 12.1046 24 11ZM26 11.5C26.2761 11.5 26.5 11.2761 26.5 11C26.5 10.7239 26.2761 10.5 26 10.5C25.7239 10.5 25.5 10.7239 25.5 11C25.5 11.2761 25.7239 11.5 26 11.5Z" fill="#767676"/>
</svg>
