<svg width="25" height="24" viewBox="0 0 25 24" fill="none" xmlns="http://www.w3.org/2000/svg">
<g clip-path="url(#clip0_12_61)">
<path d="M13.0044 3.19499C12.8663 3.06929 12.6863 2.99963 12.4995 2.99963C12.3128 2.99963 12.1328 3.06929 11.9947 3.19499L4.49469 10.2769C4.41751 10.3472 4.35587 10.433 4.31374 10.5285C4.2716 10.6241 4.24989 10.7274 4.25 10.8319V19.5C4.25 19.6989 4.32902 19.8897 4.46967 20.0303C4.61032 20.171 4.80109 20.25 5 20.25H20C20.1989 20.25 20.3897 20.171 20.5303 20.0303C20.671 19.8897 20.75 19.6989 20.75 19.5V10.8319C20.75 10.7273 20.7281 10.624 20.6858 10.5284C20.6435 10.4328 20.5817 10.3472 20.5044 10.2769L13.0044 3.19499Z" stroke="black" stroke-width="2" stroke-linecap="round" stroke-linejoin="round"/>
</g>
<defs>
<clipPath id="clip0_12_61">
<rect width="24" height="24" fill="white" transform="translate(0.5)"/>
</clipPath>
</defs>
</svg>
