<svg width="390" height="453" viewBox="0 0 390 453" fill="none" xmlns="http://www.w3.org/2000/svg">
<g filter="url(#filter0_d_1_12)">
<path d="M188.87 124.371V121.203C188.87 118.329 191.167 116 194 116C196.833 116 199.13 118.329 199.13 121.203V124.371C199.13 127.245 196.833 129.574 194 129.574C191.167 129.574 188.87 127.244 188.87 124.371ZM139.263 140.64C140.213 142.31 141.937 143.244 143.711 143.244C144.58 143.244 145.462 143.019 146.269 142.547C148.723 141.111 149.565 137.928 148.15 135.439L146.59 132.697C145.173 130.207 142.035 129.354 139.583 130.789C137.129 132.225 136.287 135.408 137.703 137.897L139.263 140.64ZM241.729 142.547C242.536 143.02 243.418 143.245 244.288 143.245C246.061 143.245 247.786 142.311 248.736 140.642L250.297 137.899C251.713 135.41 250.873 132.228 248.419 130.791C245.966 129.355 242.829 130.208 241.412 132.696L239.851 135.439C238.434 137.927 239.275 141.109 241.729 142.547ZM281.116 180.591C281.986 180.591 282.869 180.366 283.677 179.893L286.381 178.309C288.834 176.872 289.674 173.689 288.257 171.201C286.841 168.712 283.704 167.86 281.25 169.298L278.546 170.881C276.093 172.318 275.253 175.501 276.669 177.99C277.619 179.658 279.343 180.591 281.116 180.591ZM294.45 272.874C287.789 286.265 269.175 295.263 248.131 295.263C233.705 295.263 220.192 291.042 211.005 283.816C205.743 287.474 200.187 289.83 194.682 290.55C194.431 290.583 194.18 290.595 193.937 290.592C193.732 290.591 193.525 290.577 193.319 290.55C187.814 289.829 182.258 287.474 176.995 283.816C167.808 291.043 154.296 295.263 139.869 295.263C118.825 295.263 100.211 286.265 93.5499 272.874C92.817 271.4 92.8164 269.661 93.5499 268.186C98.4648 258.303 109.704 250.809 123.926 247.561C116.546 236.929 113.852 224.365 117.194 213.618C117.603 212.303 118.511 211.206 119.716 210.569C128.145 206.115 138.835 205.792 149.24 209.491C150.785 204.3 153.216 199.783 156.51 196.262C157.637 195.058 159.264 194.472 160.887 194.684C163.577 195.036 166.28 195.779 168.955 196.873C174.382 185.238 182.382 176.561 191.859 172.15C193.217 171.517 194.78 171.517 196.138 172.15C205.612 176.559 213.609 185.23 219.038 196.858C221.713 195.773 224.418 195.037 227.114 194.684C228.738 194.472 230.364 195.058 231.49 196.262C234.785 199.783 237.215 204.3 238.76 209.49C249.166 205.792 259.855 206.115 268.283 210.568C269.488 211.205 270.396 212.302 270.805 213.617C274.149 224.365 271.454 236.928 264.073 247.56C278.296 250.808 289.535 258.302 294.45 268.185C295.183 269.661 295.183 271.4 294.45 272.874ZM232.339 258.114C237.909 256.71 243.443 253.819 248.318 249.67C258.274 241.197 263.488 228.859 261.557 218.889C255.532 216.515 248.016 216.883 240.61 219.897C241.321 229.613 239.594 240.602 235.327 251.419C234.421 253.718 233.42 255.954 232.339 258.114ZM177.95 201.943C183.86 206.211 189.372 212.117 193.989 219.183C198.63 212.041 204.136 206.144 210.032 201.902C206.081 193.243 200.425 186.47 194 182.728C187.563 186.476 181.901 193.265 177.95 201.943ZM139.681 249.67C144.555 253.819 150.09 256.711 155.662 258.114C154.58 255.953 153.581 253.719 152.673 251.417C148.407 240.602 146.68 229.612 147.39 219.897C139.984 216.882 132.469 216.513 126.442 218.887C124.511 228.859 129.725 241.196 139.681 249.67ZM168.891 276.915C166.682 274.661 164.572 272.172 162.594 269.483C152.429 269.307 141.824 265.081 133.086 257.642C132.718 257.329 132.357 257.013 132 256.693C119.506 258.263 109.034 263.487 104.107 270.529C110.097 279.075 124.259 284.856 139.868 284.856C150.95 284.856 161.549 281.892 168.891 276.915ZM192.006 237.683C186.894 224.723 178.347 214.035 169.363 208.641C169.112 208.52 168.875 208.381 168.652 208.226C166.526 207.018 164.381 206.111 162.254 205.542C160.127 208.627 158.704 212.573 157.995 217.068C157.977 217.342 157.937 217.616 157.875 217.888C156.691 226.569 158.103 237.174 162.197 247.552C166.329 258.026 172.703 267.015 179.739 272.926C179.903 273.046 180.062 273.178 180.214 273.32C184.026 276.435 188.021 278.643 191.949 279.693C198.254 270.55 198.38 253.842 192.006 237.683ZM225.802 247.551C229.894 237.177 231.307 226.576 230.126 217.896C230.061 217.617 230.02 217.336 230.002 217.056C229.294 212.565 227.87 208.623 225.745 205.541C223.649 206.099 221.534 206.985 219.433 208.165C219.155 208.368 218.853 208.545 218.53 208.691C211.552 212.898 204.818 220.306 199.748 229.634C200.376 231.002 200.971 232.397 201.531 233.817C207.348 248.564 208.445 263.634 205.077 275.357C205.992 274.727 206.901 274.041 207.8 273.307C207.942 273.175 208.09 273.052 208.244 272.939C215.286 267.028 221.668 258.033 225.802 247.551ZM283.892 270.529C278.965 263.487 268.493 258.263 255.998 256.693C255.642 257.013 255.279 257.33 254.912 257.642C246.174 265.079 235.57 269.306 225.405 269.483C223.428 272.172 221.318 274.661 219.108 276.915C226.451 281.891 237.051 284.856 248.131 284.856C263.74 284.856 277.902 279.075 283.892 270.529ZM243.728 309.015C241.592 307.127 238.352 307.354 236.491 309.521C233.256 313.288 217.934 318.593 194 318.593C170.065 318.593 154.744 313.288 151.509 309.521C149.648 307.354 146.408 307.127 144.271 309.015C142.135 310.902 141.912 314.189 143.773 316.356C151.787 325.689 175.839 329 194.001 329C212.162 329 236.214 325.688 244.228 316.356C246.088 314.189 245.864 310.902 243.728 309.015ZM126.565 198.915C129.29 199.694 132.125 198.084 132.894 195.318C140.562 167.71 165.69 148.428 194 148.428C222.31 148.428 247.438 167.71 255.106 195.318C255.744 197.613 257.802 199.112 260.041 199.112C260.502 199.112 260.97 199.048 261.435 198.915C264.162 198.136 265.749 195.262 264.981 192.496C256.073 160.422 226.884 138.021 194 138.021C161.116 138.021 131.927 160.422 123.019 192.496C122.251 195.262 123.838 198.136 126.565 198.915ZM194 311.512C198.407 311.512 213.196 311.035 218.459 304.902C220.319 302.734 220.095 299.447 217.958 297.56C215.833 295.683 212.614 295.899 210.75 298.035C209.58 299.113 203.508 301.105 194 301.105C184.49 301.105 178.417 299.113 177.248 298.034C175.383 295.899 172.166 295.683 170.04 297.561C167.904 299.449 167.68 302.735 169.541 304.902C174.806 311.035 189.594 311.512 194 311.512ZM101.619 178.308L104.321 179.892C105.129 180.366 106.012 180.591 106.883 180.591C108.655 180.591 110.379 179.659 111.33 177.99C112.747 175.502 111.908 172.319 109.454 170.882L106.752 169.298C104.301 167.861 101.161 168.711 99.7444 171.2C98.3269 173.688 99.1664 176.87 101.619 178.308Z" fill="#61B15A"/>
</g>
<defs>
<filter id="filter0_d_1_12" x="-27" y="0" width="442" height="453" filterUnits="userSpaceOnUse" color-interpolation-filters="sRGB">
<feFlood flood-opacity="0" result="BackgroundImageFix"/>
<feColorMatrix in="SourceAlpha" type="matrix" values="0 0 0 0 0 0 0 0 0 0 0 0 0 0 0 0 0 0 127 0" result="hardAlpha"/>
<feOffset dy="4"/>
<feGaussianBlur stdDeviation="60"/>
<feColorMatrix type="matrix" values="0 0 0 0 1 0 0 0 0 1 0 0 0 0 1 0 0 0 0.5 0"/>
<feBlend mode="normal" in2="BackgroundImageFix" result="effect1_dropShadow_1_12"/>
<feBlend mode="normal" in="SourceGraphic" in2="effect1_dropShadow_1_12" result="shape"/>
</filter>
</defs>
</svg>
