<svg width="40" height="40" viewBox="0 0 40 40" fill="none" xmlns="http://www.w3.org/2000/svg">
<circle cx="20" cy="20" r="20" fill="#D9D9D9"/>
<path d="M20.2083 19.6667C23.4304 19.6667 26.0417 17.0553 26.0417 13.8333C26.0417 10.6113 23.4304 8 20.2083 8C16.9863 8 14.375 10.6113 14.375 13.8333C14.375 17.0553 16.9863 19.6667 20.2083 19.6667ZM24.2917 21.125H23.5306C22.5189 21.5898 21.3932 21.8542 20.2083 21.8542C19.0235 21.8542 17.9024 21.5898 16.8861 21.125H16.125C12.7435 21.125 10 23.8685 10 27.25V29.1458C10 30.3535 10.9798 31.3333 12.1875 31.3333H28.2292C29.4369 31.3333 30.4167 30.3535 30.4167 29.1458V27.25C30.4167 23.8685 27.6732 21.125 24.2917 21.125Z" fill="#585858"/>
</svg>
